<svg
  xmlns="http://www.w3.org/2000/svg"
  xmlns:xlink="http://www.w3.org/1999/xlink"
  width="713px" height="167px">
  <path fill-rule="evenodd"  fill="rgb(255, 255, 255)"
        d="M688.243,126.360 C686.881,129.960 685.501,133.219 684.103,136.140 C682.702,139.059 681.043,141.540 679.123,143.580 C677.203,145.620 674.882,147.199 672.163,148.320 C669.442,149.439 666.121,150.000 662.203,150.000 L662.203,145.200 C664.843,145.200 667.162,144.879 669.163,144.240 C671.161,143.599 672.943,142.539 674.503,141.060 C676.063,139.579 677.482,137.580 678.763,135.060 C680.042,132.540 681.322,129.399 682.603,125.640 L656.683,61.200 L662.443,61.200 L685.123,118.920 L685.843,118.920 L706.723,61.200 L712.363,61.200 L688.243,126.360 ZM602.564,95.880 C602.643,100.680 603.063,104.741 603.824,108.060 C604.584,111.381 605.864,114.101 607.664,116.220 C609.464,118.341 611.844,119.880 614.804,120.840 C617.763,121.800 621.444,122.280 625.844,122.280 C629.204,122.280 632.763,121.941 636.524,121.260 C640.284,120.581 643.484,119.601 646.124,118.320 L646.124,123.480 C645.243,123.881 644.043,124.301 642.524,124.740 C641.004,125.181 639.324,125.580 637.484,125.940 C635.643,126.300 633.684,126.600 631.604,126.840 C629.523,127.080 627.483,127.200 625.484,127.200 C620.444,127.200 616.124,126.639 612.524,125.520 C608.924,124.401 605.984,122.541 603.704,119.940 C601.424,117.341 599.744,113.901 598.664,109.620 C597.584,105.341 597.044,100.001 597.044,93.600 C597.044,87.281 597.564,81.960 598.604,77.640 C599.643,73.320 601.284,69.861 603.524,67.260 C605.763,64.661 608.643,62.801 612.164,61.680 C615.684,60.561 619.923,60.000 624.884,60.000 C630.243,60.000 634.484,60.801 637.604,62.400 C640.724,64.001 643.104,66.081 644.744,68.640 C646.383,71.201 647.424,74.040 647.864,77.160 C648.303,80.280 648.524,83.361 648.524,86.400 C648.524,87.281 648.524,88.221 648.524,89.220 C648.524,90.221 648.444,91.361 648.284,92.640 L602.564,95.880 ZM642.824,78.600 C642.464,75.720 641.624,73.260 640.304,71.220 C638.984,69.180 637.083,67.620 634.604,66.540 C632.124,65.460 628.803,64.920 624.644,64.920 C620.403,64.920 616.884,65.400 614.084,66.360 C611.283,67.320 609.044,68.861 607.364,70.980 C605.684,73.101 604.484,75.840 603.764,79.200 C603.044,82.560 602.643,86.601 602.564,91.320 L643.364,88.200 C643.364,84.681 643.184,81.480 642.824,78.600 ZM558.885,126.000 L534.165,61.200 L539.805,61.200 L561.765,120.120 L562.485,120.120 L584.085,61.200 L589.725,61.200 L565.245,126.000 L558.885,126.000 ZM530.325,64.920 C528.244,64.920 526.185,65.121 524.145,65.520 C522.105,65.921 520.185,66.681 518.385,67.800 C516.585,68.921 514.945,70.461 513.465,72.420 C511.984,74.381 510.765,76.881 509.805,79.920 L509.805,126.000 L504.405,126.000 L504.405,61.200 L509.805,61.200 L509.805,72.840 C510.685,70.200 511.905,68.040 513.465,66.360 C515.025,64.680 516.765,63.360 518.685,62.400 C520.605,61.440 522.604,60.801 524.685,60.480 C526.765,60.161 528.765,60.000 530.685,60.000 L532.005,60.000 L531.765,64.920 L530.325,64.920 ZM476.566,114.600 C476.005,116.921 475.006,118.881 473.566,120.480 C472.126,122.081 470.405,123.381 468.406,124.380 C466.406,125.381 464.225,126.099 461.866,126.540 C459.505,126.979 457.205,127.200 454.966,127.200 C450.886,127.200 447.505,126.720 444.826,125.760 C442.145,124.800 440.005,123.441 438.406,121.680 C436.805,119.921 435.686,117.761 435.046,115.200 C434.405,112.641 434.086,109.761 434.086,106.560 L434.086,61.200 L439.486,61.200 L439.486,103.200 C439.486,106.560 439.705,109.440 440.146,111.840 C440.585,114.240 441.406,116.201 442.606,117.720 C443.806,119.241 445.445,120.360 447.526,121.080 C449.605,121.800 452.285,122.160 455.566,122.160 C457.726,122.160 459.925,121.961 462.166,121.560 C464.405,121.161 466.486,120.401 468.406,119.280 C470.326,118.161 472.006,116.601 473.446,114.600 C474.886,112.601 475.925,109.961 476.566,106.680 L476.566,61.200 L481.966,61.200 L481.966,126.000 L477.406,126.000 L476.566,114.600 ZM430.997,47.689 L425.157,47.689 C425.980,39.042 426.392,32.495 426.392,28.047 C426.392,21.707 424.841,16.703 421.740,13.038 C418.640,9.374 414.439,7.541 409.136,7.541 C400.920,7.541 393.748,10.818 387.624,17.369 C381.500,23.922 378.438,31.279 378.438,39.438 C378.438,43.806 379.277,47.763 380.958,51.307 C382.637,54.851 386.352,59.796 392.101,66.143 C402.626,77.517 409.532,86.420 412.817,92.847 C416.102,99.275 417.745,105.539 417.745,111.638 C417.745,120.622 415.255,129.277 410.276,137.600 C405.296,145.925 397.960,152.785 388.265,158.186 C378.568,163.583 368.331,166.283 357.549,166.283 C346.917,166.283 337.952,163.235 330.652,157.142 C323.353,151.046 319.703,144.624 319.703,137.870 C319.703,134.247 320.657,131.242 322.566,128.852 C324.476,126.464 326.666,125.270 329.136,125.270 C331.681,125.270 333.778,126.381 335.425,128.605 C336.473,129.923 337.521,132.888 338.570,137.500 C339.767,143.101 341.227,147.156 342.950,149.668 C344.671,152.179 347.049,154.239 350.081,155.844 C353.113,157.450 356.426,158.253 360.020,158.253 C370.726,158.253 380.084,154.275 388.096,146.323 C396.107,138.370 400.113,129.570 400.113,119.927 C400.113,116.630 399.607,113.354 398.597,110.100 C397.586,106.845 395.733,103.157 393.038,99.034 C391.165,96.231 387.010,91.286 380.572,84.198 C374.207,77.276 370.201,72.535 368.555,69.980 C366.234,66.272 364.512,62.543 363.389,58.792 C362.266,55.042 361.705,51.313 361.705,47.603 C361.705,40.104 363.988,32.562 368.555,24.978 C373.121,17.396 379.056,11.359 386.355,6.867 C393.655,2.375 401.947,0.128 411.231,0.128 C415.872,0.128 421.600,0.912 428.414,2.476 C432.306,3.300 435.675,3.917 438.521,4.329 C436.873,9.683 435.601,14.727 434.703,19.462 C433.804,24.198 432.569,33.606 430.997,47.689 ZM313.756,84.000 C313.756,80.640 313.555,77.741 313.156,75.300 C312.755,72.861 312.016,70.881 310.936,69.360 C309.856,67.841 308.356,66.720 306.436,66.000 C304.516,65.280 302.035,64.920 298.996,64.920 C296.836,64.920 294.736,65.121 292.696,65.520 C290.656,65.921 288.755,66.681 286.996,67.800 C285.235,68.921 283.715,70.500 282.436,72.540 C281.155,74.580 280.195,77.241 279.556,80.520 L279.556,80.640 L279.556,126.000 L274.156,126.000 L274.156,84.000 C274.156,80.640 273.955,77.741 273.556,75.300 C273.155,72.861 272.416,70.881 271.336,69.360 C270.256,67.841 268.756,66.720 266.836,66.000 C264.916,65.280 262.475,64.920 259.516,64.920 C257.356,64.920 255.256,65.121 253.216,65.520 C251.176,65.921 249.295,66.660 247.576,67.740 C245.855,68.820 244.336,70.341 243.016,72.300 C241.696,74.261 240.715,76.800 240.076,79.920 L240.076,126.000 L234.676,126.000 L234.676,61.200 L240.076,61.200 L240.076,72.000 C240.635,69.761 241.576,67.881 242.896,66.360 C244.216,64.841 245.776,63.600 247.576,62.640 C249.376,61.680 251.356,61.001 253.516,60.600 C255.676,60.201 257.875,60.000 260.116,60.000 C265.876,60.000 270.196,61.101 273.076,63.300 C275.956,65.501 277.876,68.601 278.836,72.600 C279.395,70.281 280.355,68.321 281.716,66.720 C283.075,65.121 284.716,63.821 286.636,62.820 C288.556,61.821 290.635,61.101 292.876,60.660 C295.115,60.221 297.395,60.000 299.716,60.000 C303.475,60.000 306.595,60.480 309.076,61.440 C311.555,62.400 313.555,63.761 315.076,65.520 C316.595,67.281 317.656,69.441 318.256,72.000 C318.856,74.561 319.156,77.441 319.156,80.640 L319.156,126.000 L313.756,126.000 L313.756,84.000 ZM169.637,95.880 C169.716,100.680 170.136,104.741 170.897,108.060 C171.657,111.381 172.937,114.101 174.737,116.220 C176.537,118.341 178.917,119.880 181.877,120.840 C184.836,121.800 188.517,122.280 192.917,122.280 C196.277,122.280 199.836,121.941 203.597,121.260 C207.357,120.581 210.557,119.601 213.197,118.320 L213.197,123.480 C212.316,123.881 211.116,124.301 209.597,124.740 C208.077,125.181 206.397,125.580 204.557,125.940 C202.716,126.300 200.757,126.600 198.677,126.840 C196.596,127.080 194.556,127.200 192.557,127.200 C187.517,127.200 183.197,126.639 179.597,125.520 C175.997,124.401 173.057,122.541 170.777,119.940 C168.497,117.341 166.817,113.901 165.737,109.620 C164.657,105.341 164.117,100.001 164.117,93.600 C164.117,87.281 164.637,81.960 165.677,77.640 C166.716,73.320 168.357,69.861 170.597,67.260 C172.836,64.661 175.716,62.801 179.237,61.680 C182.757,60.561 186.996,60.000 191.957,60.000 C197.316,60.000 201.557,60.801 204.677,62.400 C207.797,64.001 210.177,66.081 211.817,68.640 C213.456,71.201 214.497,74.040 214.937,77.160 C215.376,80.280 215.597,83.361 215.597,86.400 C215.597,87.281 215.597,88.221 215.597,89.220 C215.597,90.221 215.517,91.361 215.357,92.640 L169.637,95.880 ZM209.897,78.600 C209.537,75.720 208.697,73.260 207.377,71.220 C206.057,69.180 204.156,67.620 201.677,66.540 C199.197,65.460 195.876,64.920 191.717,64.920 C187.476,64.920 183.957,65.400 181.157,66.360 C178.356,67.320 176.117,68.861 174.437,70.980 C172.757,73.101 171.557,75.840 170.837,79.200 C170.117,82.560 169.716,86.601 169.637,91.320 L210.437,88.200 C210.437,84.681 210.257,81.480 209.897,78.600 ZM153.678,64.920 C151.597,64.920 149.538,65.121 147.498,65.520 C145.458,65.921 143.538,66.681 141.738,67.800 C139.938,68.921 138.297,70.461 136.818,72.420 C135.337,74.381 134.118,76.881 133.158,79.920 L133.158,126.000 L127.758,126.000 L127.758,61.200 L133.158,61.200 L133.158,72.840 C134.037,70.200 135.258,68.040 136.818,66.360 C138.378,64.680 140.118,63.360 142.038,62.400 C143.958,61.440 145.957,60.801 148.038,60.480 C150.117,60.161 152.118,60.000 154.038,60.000 L155.358,60.000 L155.118,64.920 L153.678,64.920 ZM102.498,119.880 C100.218,122.520 97.317,124.401 93.798,125.520 C90.277,126.639 86.077,127.200 81.198,127.200 C76.237,127.200 72.018,126.639 68.538,125.520 C65.058,124.401 62.217,122.520 60.018,119.880 C57.817,117.240 56.197,113.781 55.158,109.500 C54.117,105.221 53.598,99.921 53.598,93.600 C53.598,87.281 54.117,81.981 55.158,77.700 C56.197,73.421 57.817,69.960 60.018,67.320 C62.217,64.680 65.058,62.801 68.538,61.680 C72.018,60.561 76.237,60.000 81.198,60.000 C86.077,60.000 90.277,60.561 93.798,61.680 C97.317,62.801 100.218,64.680 102.498,67.320 C104.778,69.960 106.437,73.421 107.478,77.700 C108.517,81.981 109.038,87.281 109.038,93.600 C109.038,99.921 108.517,105.221 107.478,109.500 C106.437,113.781 104.778,117.240 102.498,119.880 ZM102.318,80.100 C101.598,76.461 100.377,73.521 98.658,71.280 C96.937,69.041 94.657,67.421 91.818,66.420 C88.977,65.421 85.437,64.920 81.198,64.920 C76.957,64.920 73.417,65.421 70.578,66.420 C67.737,67.421 65.478,69.041 63.798,71.280 C62.118,73.521 60.937,76.461 60.258,80.100 C59.577,83.741 59.238,88.241 59.238,93.600 C59.238,98.961 59.577,103.461 60.258,107.100 C60.937,110.741 62.118,113.681 63.798,115.920 C65.478,118.161 67.737,119.781 70.578,120.780 C73.417,121.781 76.957,122.280 81.198,122.280 C85.518,122.280 89.097,121.781 91.938,120.780 C94.777,119.781 97.038,118.161 98.718,115.920 C100.398,113.681 101.598,110.741 102.318,107.100 C103.038,103.461 103.398,98.961 103.398,93.600 C103.398,88.241 103.038,83.741 102.318,80.100 ZM0.319,42.720 L5.959,42.720 L5.959,120.600 L44.239,120.600 L44.239,126.000 L0.319,126.000 L0.319,42.720 Z"/>
</svg>
